#N canvas 966 262 200 200 10;
#N canvas 19 48 420 300 META 0;
#X text 10 10 META this is a prototype of a libdir meta file;
#X text 10 30 NAME swe~;
#X text 10 51 AUTHOR Joel Matthys;
#X text 10 90 LICENSE GPL v3;
#X text 10 110 VERSION 0.6-beta;
#X text 10 70 DESCRIPTION External to access Swiss Ephemera data;
#X restore 10 10 pd META;
