#N canvas 413 80 891 508 10;
#X msg 19 16 bang;
#X text 230 79 gregorian;
#X msg 97 43 -bj "23524352.23432";
#X msg 109 18 -bj 1235;
#X msg 31 267 -path /home/jwmatthys/Downloads;
#X floatatom 26 208 8 0 0 0 - - -, f 8;
#X floatatom 100 209 8 0 0 0 - - -, f 8;
#X floatatom 178 210 8 0 0 0 - - -, f 8;
#X msg 6 107 0.1;
#X msg 129 78 -b 1974 6 27;
#X text 29 230 long;
#X text 105 228 lat;
#X text 183 230 dist;
#X floatatom 249 209 8 0 0 0 - - -, f 8;
#X text 242 228 julian date;
#X text 143 153 <-- number is celestial body;
#X text 9 89 advance;
#X text 257 43 julian (can be float or;
#X text 263 60 symbol in quotes);
#X text 261 269 path to ephemera datafiles;
#X msg 487 45 -audio \$1;
#X obj 487 23 tgl 15 0 empty empty empty 17 7 0 10 -262144 -1 -1 0
1;
#N canvas 0 22 450 278 (subpatch) 0;
#X array array1 365 float 0;
#X coords 0 1 364 -1 200 140 1 0 0;
#X restore 46 302 graph;
#X msg 510 114 -b 0 0 0;
#X obj 385 369 dac~;
#X obj 387 328 *~ 0.2;
#X msg 355 114 -p 0 \, -b 1974 6 27;
#X msg 491 252 -iflag HELCTR;
#X text 233 120 comment;
#X text 368 10 comment;
#X text 452 232 see swephprg.pdf p 11 for flags;
#X msg 438 179 -loop "2442225.5" \, -p 1 \, -step 0.2 \, -audio 1;
#X msg 496 279 -iflag DEFAULT;
#X msg 582 114 -b 2017 11 10;
#X msg 436 153 -loop "1721027.5" "2458067" 0.5 \, -p 2 \, -audio 1
;
#X obj 42 151 swe~ 5;
#X msg 428 88 -p 5;
#X text 434 203 if no end date \, loop will be 365242 days (1000 yrs)
;
#X msg 701 125 -loopoff;
#X msg 159 119 -step 0.1;
#X obj 342 205 bng 15 250 50 0 empty empty empty 17 7 0 10 -262144
-1 -1;
#X msg 239 14 -b 0 0 0;
#X msg 504 357 -array array1 "2440225.5" "2443225.5" sin;
#X connect 0 0 35 0;
#X connect 2 0 35 0;
#X connect 3 0 35 0;
#X connect 4 0 35 0;
#X connect 8 0 35 0;
#X connect 9 0 35 0;
#X connect 20 0 35 0;
#X connect 21 0 20 0;
#X connect 23 0 35 0;
#X connect 25 0 24 0;
#X connect 25 0 24 1;
#X connect 26 0 35 0;
#X connect 27 0 35 0;
#X connect 31 0 35 0;
#X connect 32 0 35 0;
#X connect 33 0 35 0;
#X connect 34 0 35 0;
#X connect 35 0 25 0;
#X connect 35 1 5 0;
#X connect 35 2 6 0;
#X connect 35 3 7 0;
#X connect 35 4 13 0;
#X connect 35 5 40 0;
#X connect 36 0 35 0;
#X connect 38 0 35 0;
#X connect 39 0 35 0;
#X connect 41 0 35 0;
#X connect 42 0 35 0;
